<svg version="1.1" id="Layer_1" xmlns:x="ns_extend;" xmlns:i="ns_ai;" xmlns:graph="ns_graphs;" xmlns="http://www.w3.org/2000/svg" xmlns:xlink="http://www.w3.org/1999/xlink" x="0px" y="0px" viewBox="0 0 72 72" style="enable-background:new 0 0 72 72;" xml:space="preserve">
 <style type="text/css">
  .st0{fill:url(#SVGID_1_);}
	.st1{fill:#3E53A4;}
 </style>
 <metadata>
  <sfw xmlns="ns_sfw;">
   <slices>
   </slices>
   <sliceSourceBounds bottomLeftOrigin="true" height="72" width="72" x="59.8" y="0">
   </sliceSourceBounds>
  </sfw>
 </metadata>
 <g>
  <linearGradient id="SVGID_1_" gradientUnits="userSpaceOnUse" x1="10.5508" y1="107.4625" x2="61.4492" y2="56.5375" gradientTransform="matrix(1 0 0 -1 0 118)">
   <stop offset="0.2" style="stop-color:#C869A8">
   </stop>
   <stop offset="0.5" style="stop-color:#6E7EBB">
   </stop>
   <stop offset="0.8" style="stop-color:#00BCF1">
   </stop>
  </linearGradient>
  <path class="st0" d="M36,0C16.1,0,0,16.1,0,36s16.1,36,36,36s36-16.1,36-36S55.9,0,36,0z M36,70.1C17.2,70.1,1.9,54.8,1.9,36
		S17.2,1.9,36,1.9c18.8,0,34.1,15.3,34.1,34.1c0,0,0,0,0,0C70.1,54.8,54.8,70.1,36,70.1z M24.1,8.7h-0.4C8.6,15.6,2,33.3,8.8,48.3
		S33.3,70,48.3,63.2S70,38.7,63.2,23.6C58.4,12.9,47.7,6.1,36,6.1h-0.7c-0.6,0-1,0.4-1,1.1s0.4,1.1,0.9,1.1H36
		c15.2,0,27.5,12.4,27.5,27.6c0,15.2-12.4,27.5-27.6,27.5c-15.2,0-27.5-12.4-27.5-27.6c0-10.8,6.3-20.6,16.2-25.1
		c0.5-0.2,0.7-0.8,0.4-1.4C24.8,9,24.5,8.8,24.1,8.7z M23.7,16c-0.2,0-0.5,0.1-0.6,0.2C12.2,23.4,9.2,38,16.3,48.9
		c1.8,2.7,4.1,5,6.8,6.8c0.2,0.1,0.4,0.2,0.6,0.2c0.5,0,0.9-0.3,1.1-0.7c0.5-0.5,0.4-1.3-0.1-1.8c0,0,0,0-0.1,0l0,0
		c-9.6-6.3-12.2-19.2-5.9-28.8c1.5-2.3,3.5-4.3,5.9-5.9c0.3-0.2,0.5-0.5,0.5-0.8c0-0.4-0.1-0.7-0.3-1C24.7,16.3,24.2,16,23.7,16z
		 M35.5,56.7c-0.3,0-0.6,0.1-0.8,0.3c-0.3,0.3-0.4,0.7-0.4,1.1c0,0.9,0.5,1.4,1.2,1.4H36c13,0,23.6-10.6,23.6-23.6S49,12.3,36,12.3
		h-0.5c-0.7,0-1.2,0.6-1.2,1.4s0.5,1.4,1.2,1.4H36c11.5,0,20.8,9.3,20.8,20.8c0,11.5-9.3,20.8-20.8,20.8L35.5,56.7z M22.2,25.9
		c0.5-0.7,1.5-0.8,2.1-0.3c0,0,0.1,0.1,0.1,0.1c0.7,0.4,1,1.3,0.6,2.1c0,0.1-0.1,0.1-0.1,0.1c-3.4,4.8-3.4,11.2,0,16
		c0.5,0.7,0.3,1.6-0.4,2.1c0,0-0.1,0.1-0.1,0.1c-0.6,0.6-1.6,0.6-2.1,0c0,0-0.1-0.1-0.1-0.1C20,43.1,18.9,39.6,19,36
		C18.9,32.4,20,28.9,22.2,25.9L22.2,25.9z">
  </path>
  <path class="st1" d="M36.1,45.7c-1.1,0-1.8-0.8-1.8-2.1s0.6-2.1,1.8-2.1c3-0.1,5.4-2.7,5.3-5.7c-0.1-3-2.7-5.4-5.7-5.3
		c-1.4-0.1-2.8,0.4-3.9,1.2v25.7c0,1.2-0.9,1.8-2.1,1.8c-1.2,0-2.1-0.6-2.1-1.8V32c0,0,0-1.6,0-1.9c0.3-0.9,0.9-1.6,1.7-2
		c2-1.1,4.3-1.8,6.7-1.8c5.3,0.3,9.4,4.8,9.1,10.1C44.9,41.4,41,45.3,36.1,45.7L36.1,45.7z M36.1,53.2c-1.1,0-1.8-0.8-1.8-2.1
		c0-1.3,0.6-2.1,1.8-2.1c7.2,0,13-5.8,13-13s-5.8-13-13-13c-2.1,0-4.1,0.4-6,1.2c-1,0.3-2-0.2-2.3-1.2c-0.1-0.2-0.1-0.5-0.1-0.7V7
		c0-1.1,0.8-1.8,2.1-1.8s2.1,0.7,2.1,1.8v12.4c1.4-0.4,2.8-0.5,4.2-0.5c9.5,0.4,16.8,8.3,16.5,17.8C52.1,45.7,44.9,52.8,36.1,53.2
		L36.1,53.2z">
  </path>
 </g>
</svg>