<svg aria-labelledby="Logo" class="hw-navbar__logo-standard" height="100%" role="img" version="1.1" viewBox="0 0 288 110.7" xmlns="http://www.w3.org/2000/svg">
<title id="Logo">Bring</title>
<path d="M267.6 57.9c-7.3 0-8.8 3-8.8 12.9s1.5 12.6 8.8 12.6c8.4 0 10.7-2 10.7-12.6s-2.3-12.9-10.7-12.9zM128.4 58.2c-8.4 0-10.8 2.3-10.8 12.9 0 10.6 2.4 12.9 10.8 12.9 7.3 0 8.8-3 8.8-12.9.1-9.9-1.5-12.9-8.8-12.9z" fill="none"></path>
<path d="M227.5 49.2c-6 0-9.8 1.9-12.2 4.1V50h-8.5v42.2h9.8V72.5c0-7.4-.8-14.6 9.8-14.6 8.5 0 7.7 3.9 7.7 12v22.3h9.8V69.1c0-9.2.7-19.9-16.4-19.9zM130.6 49.2c-4.6 0-9.6.5-12.8 3.8V36.3H108v55.9h8.8v-3.4c2.6 2.3 6.6 4.1 12.2 4.1 16.9 0 18-11.4 18-21.8.1-12.8-1.9-21.9-16.4-21.9zM128.4 84c-8.4 0-10.8-2.3-10.8-12.9 0-10.6 2.4-12.9 10.8-12.9 7.3 0 8.8 3 8.8 12.9.1 9.9-1.5 12.9-8.8 12.9zM172.2 49.2c-4.9 0-8.8 1.6-11.6 4.5v-3.8h-8.5v42.2h9.8V73.8c0-3.3-.2-8 1-11 1-2.9 3.6-5 7.6-5 4.1 0 5.7.9 5.7 4.8h9.7c0-9.3-4.6-13.4-13.7-13.4zM279.2 49.9v3.3c-3.3-2.9-8.7-4.1-13.2-4.1-14.6 0-16.9 8.8-16.9 21.6 0 10.1 1 21.4 17 21.4 4.1 0 9.1-1 12.1-3.7 0 2.2.1 5.2-.2 7.4-.5 4-4.6 5.7-10.2 5.7-5.5 0-7.2-1.5-7.2-4.6H250c0 10.7 9.6 12.9 18.1 12.9 7.8 0 18-2.1 19.6-12.1.3-2.3.3-6.2.3-10.1V49.9h-8.8zm-11.6 33.4c-7.3 0-8.8-2.7-8.8-12.6 0-9.9 1.5-12.9 8.8-12.9 8.4 0 10.7 2.3 10.7 12.9 0 10.6-2.3 12.6-10.7 12.6zM190.6 49.9h9.8v42.2h-9.8zM190.6 36.3h9.8v9.8h-9.8z" fill="#7bc144"></path>
<path d="M27.8 72C15.2 72 4.9 62.3 3.9 49.9H0C1 75.6 22.1 96 48 96s47-20.5 48-46.1H51.7C50.7 62.3 40.4 72 27.8 72z" fill="#B5E099"></path>
<path d="M48 0C22.1 0 1 20.5 0 46.1h3.9C4.9 33.7 15.2 24 27.8 24c12.6 0 22.9 9.7 23.9 22.1h44.2C94.9 20.5 73.8 0 48 0z" fill="#7bc144"></path>
</svg>