<svg width="785" height="1175" viewBox="0 0 785 1175" fill="none" xmlns="http://www.w3.org/2000/svg">
<path d="M392.518 0.952148L446.462 95.0874C457.258 114.568 457.258 138.371 446.462 157.844L124.927 717.253L277.061 981.265C300.798 1022.38 345.037 1048.35 392.518 1048.35C439.992 1048.35 484.23 1022.38 507.967 981.265L660.109 717.253L620.181 645.835L447.545 945.556C436.757 965.036 415.179 976.934 393.594 976.934C370.933 976.934 350.431 965.036 339.643 945.556L206.927 717.253L505.808 197.884L559.759 292.019C570.548 311.492 570.548 335.295 559.759 354.776L351.515 717.253L392.518 788.664L619.105 394.808L768.004 653.41C790.665 693.45 790.665 742.143 768.004 782.175L616.946 1045.11C594.285 1085.14 521.991 1174.95 392.518 1174.95C263.037 1174.95 191.82 1085.14 168.083 1045.11L17.0244 782.175C-5.62924 742.143 -5.62924 693.45 17.0244 653.41L392.518 0.952148Z" fill="#E81C1C"/>
</svg>
